<?xml version="1.0" encoding="utf-8"?>
<svg xmlns="http://www.w3.org/2000/svg" xmlns:xlink="http://www.w3.org/1999/xlink" style="margin: auto; background: none; display: block; z-index: 1; position: relative; shape-rendering: auto;" width="1369" height="642" preserveAspectRatio="xMidYMid" viewBox="0 0 1369 642">
<g transform="translate(684.5,321) scale(1,1) translate(-684.5,-321)"><defs>
  <path id="path-e0roj2idy4o-1" d="M-35 -35L35 -35L35 35L-35 35Z" fill="none" stroke="inherit" stroke-width="3.170731707317073" transform="scale(0.41000000000000003)"></path>
  <path id="path-e0roj2idy4o-2" d="M0 -37A37 37 0 0 1 0 37A37 37 0 0 1 0 -37" fill="none" stroke="inherit" stroke-width="3.170731707317073" transform="scale(0.41000000000000003)"></path>
  <path id="path-e0roj2idy4o-3" d="M0 -34.641L40 34.641L-40 34.641Z" fill="none" stroke="inherit" stroke-width="3.170731707317073" transform="scale(0.41000000000000003)"></path>
</defs><path id="path0" d="M 68.04043087436543 255.32738632529518
c 0 28.794062410784026 -7.045355696255665 8.27063494777839 -15.315990644034056 8.27063494777839
S 37.40844958629731 284.12144873607923 37.40844958629731 255.32738632529518
s 7.045355696255665 -8.27063494777839 15.315990644034056 -8.27063494777839
S 68.04043087436543 226.53332391451116 68.04043087436543 255.32738632529518
z" fill="none" stroke="none"></path>
<use xlink:href="#path-e0roj2idy4o-1" x="0" y="0" stroke="#1c3870">
  <animateMotion begin="-1.2595339028505559s" dur="4.607256487841184s" keyPoints="1;0" keyTimes="0;1" repeatCount="indefinite" calcMode="linear">
    <mpath xlink:href="#path0"></mpath>
  </animateMotion>
</use><path id="path1" d="M 160.02257733906708 595.6883226758428
c 0 31.278806342127083 -7.65332495605237 8.984337991887568 -16.637662947939937 8.984337991887568
S 126.74725144318722 626.9671290179698 126.74725144318722 595.6883226758428
s 7.65332495605237 -8.984337991887568 16.637662947939937 -8.984337991887568
S 160.02257733906708 564.4095163337157 160.02257733906708 595.6883226758428
z" fill="none" stroke="none"></path>
<use xlink:href="#path-e0roj2idy4o-3" x="0" y="0" stroke="#7c276d">
  <animateMotion begin="-0.952442202993681s" dur="5.218522374831854s" keyPoints="0;1" keyTimes="0;1" repeatCount="indefinite" calcMode="linear">
    <mpath xlink:href="#path1"></mpath>
  </animateMotion>
</use><path id="path2" d="M 204.58823967883947 409.0553671414863
c 0 33.87897186167965 -8.289535668283317 9.73119404537607 -18.020729713659385 9.73119404537607
S 168.5467802515207 442.9343390031659 168.5467802515207 409.0553671414863
s 8.289535668283317 -9.73119404537607 18.020729713659385 -9.73119404537607
S 204.58823967883947 375.1763952798066 204.58823967883947 409.0553671414863
z" fill="none" stroke="none"></path>
<use xlink:href="#path-e0roj2idy4o-1" x="0" y="0" stroke="#1c3870">
  <animateMotion begin="-0.38773791786318257s" dur="5.446370810445556s" keyPoints="0;1" keyTimes="0;1" repeatCount="indefinite" calcMode="linear">
    <mpath xlink:href="#path2"></mpath>
  </animateMotion>
</use><path id="path3" d="M 239.24806198189867 523.1419084908017
c 0 39.451773822305164 -9.653093594819348 11.331892480874886 -20.984986075694234 11.331892480874886
S 197.27808983051023 562.5936823131069 197.27808983051023 523.1419084908017
s 9.653093594819348 -11.331892480874886 20.984986075694234 -11.331892480874886
S 239.24806198189867 483.69013466849657 239.24806198189867 523.1419084908017
z" fill="none" stroke="none"></path>
<use xlink:href="#path-e0roj2idy4o-2" x="0" y="0" stroke="#951c8b">
  <animateMotion begin="-1.2946595087161803s" dur="4.760048146114657s" keyPoints="0;1" keyTimes="0;1" repeatCount="indefinite" calcMode="linear">
    <mpath xlink:href="#path3"></mpath>
  </animateMotion>
</use><path id="path4" d="M 335.97512906995996 93.52088565443009
c 0 36.44991953738791 -8.91859733361619 10.469657739462486 -19.38825507307868 10.469657739462486
S 297.19861892380266 129.970805191818 297.19861892380266 93.52088565443009
s 8.91859733361619 -10.469657739462486 19.38825507307868 -10.469657739462486
S 335.97512906995996 57.070966117042175 335.97512906995996 93.52088565443009
z" fill="none" stroke="none"></path>
<use xlink:href="#path-e0roj2idy4o-2" x="0" y="0" stroke="#7c276d">
  <animateMotion begin="-0.09007549881502216s" dur="4.594785486949349s" keyPoints="1;0" keyTimes="0;1" repeatCount="indefinite" calcMode="linear">
    <mpath xlink:href="#path4"></mpath>
  </animateMotion>
</use><path id="path5" d="M 375.9169261117522 236.32868421321197
c 0 60.145952507114664 -14.716562847485502 17.275965081830808 -31.99252792931631 17.275965081830808
S 311.93187025311954 296.47463672032666 311.93187025311954 236.32868421321197
s 14.716562847485502 -17.275965081830808 31.99252792931631 -17.275965081830808
S 375.9169261117522 176.18273170609731 375.9169261117522 236.32868421321197
z" fill="none" stroke="none"></path>
<use xlink:href="#path-e0roj2idy4o-1" x="0" y="0" stroke="#1c3870">
  <animateMotion begin="-0.37257907358644937s" dur="5.232476502746288s" keyPoints="1;0" keyTimes="0;1" repeatCount="indefinite" calcMode="linear">
    <mpath xlink:href="#path5"></mpath>
  </animateMotion>
</use><path id="path6" d="M 437.08776524584005 558.6548013494303
c 0 56.45256247160753 -13.812861030286946 16.21509773120642 -30.027958761493366 16.21509773120642
S 377.0318477228533 615.1073638210378 377.0318477228533 558.6548013494303
s 13.812861030286946 -16.21509773120642 30.027958761493366 -16.21509773120642
S 437.08776524584005 502.20223887782277 437.08776524584005 558.6548013494303
z" fill="none" stroke="none"></path>
<use xlink:href="#path-e0roj2idy4o-3" x="0" y="0" stroke="#951c8b">
  <animateMotion begin="-0.315232130499525s" dur="4.527890421970334s" keyPoints="0;1" keyTimes="0;1" repeatCount="indefinite" calcMode="linear">
    <mpath xlink:href="#path6"></mpath>
  </animateMotion>
</use><path id="path7" d="M 512.5147982631039 562.7441104373456
c 0 36.78997772836245 -9.001803061195067 10.56733402835943 -19.569137089554495 10.56733402835943
S 473.3765240839949 599.5340881657081 473.3765240839949 562.7441104373456
s 9.001803061195067 -10.56733402835943 19.569137089554495 -10.56733402835943
S 512.5147982631039 525.9541327089831 512.5147982631039 562.7441104373456
z" fill="none" stroke="none"></path>
<use xlink:href="#path-e0roj2idy4o-2" x="0" y="0" stroke="#7c276d">
  <animateMotion begin="-0.04585671647686964s" dur="4.2994044848178365s" keyPoints="1;0" keyTimes="0;1" repeatCount="indefinite" calcMode="linear">
    <mpath xlink:href="#path7"></mpath>
  </animateMotion>
</use><path id="path8" d="M 550.3382140048614 294.73252832717515
c 0 56.989871327892985 -13.944330218527005 16.36943112609692 -30.313761344623927 16.36943112609692
S 489.71069131561353 351.7223996550681 489.71069131561353 294.73252832717515
s 13.944330218527005 -16.36943112609692 30.313761344623927 -16.36943112609692
S 550.3382140048614 237.74265699928216 550.3382140048614 294.73252832717515
z" fill="none" stroke="none"></path>
<use xlink:href="#path-e0roj2idy4o-3" x="0" y="0" stroke="#7c276d">
  <animateMotion begin="-0.09780717128114552s" dur="2.9087770366099748s" keyPoints="1;0" keyTimes="0;1" repeatCount="indefinite" calcMode="linear">
    <mpath xlink:href="#path8"></mpath>
  </animateMotion>
</use><path id="path9" d="M 608.5515204809794 334.923822786848
c 0 29.58438376962805 -7.238732198951544 8.497642146595291 -15.736374345546835 8.497642146595291
S 577.0787717898859 364.50820655647607 577.0787717898859 334.923822786848
s 7.238732198951544 -8.497642146595291 15.736374345546835 -8.497642146595291
S 608.5515204809794 305.33943901721995 608.5515204809794 334.923822786848
z" fill="none" stroke="none"></path>
<use xlink:href="#path-e0roj2idy4o-1" x="0" y="0" stroke="#951c8b">
  <animateMotion begin="-1.3361966380996941s" dur="4.95325516012463s" keyPoints="0;1" keyTimes="0;1" repeatCount="indefinite" calcMode="linear">
    <mpath xlink:href="#path9"></mpath>
  </animateMotion>
</use><path id="path10" d="M 681.0913996282138 399.2016400034148
c 0 26.102228979687 -6.386715601412775 7.497448749484564 -13.88416435089734 7.497448749484564
S 653.3230709264192 425.3038689831018 653.3230709264192 399.2016400034148
s 6.386715601412775 -7.497448749484564 13.88416435089734 -7.497448749484564
S 681.0913996282138 373.09941102372784 681.0913996282138 399.2016400034148
z" fill="none" stroke="none"></path>
<use xlink:href="#path-e0roj2idy4o-2" x="0" y="0" stroke="#7c276d">
  <animateMotion begin="-0.9305356821037554s" dur="4.454821975280455s" keyPoints="1;0" keyTimes="0;1" repeatCount="indefinite" calcMode="linear">
    <mpath xlink:href="#path10"></mpath>
  </animateMotion>
</use><path id="path11" d="M 752.097280764812 382.90917289418655
c 0 63.80987383000814 -15.613054235001988 18.328368015002336 -33.94142225000432 18.328368015002336
S 684.2144362648035 446.7190467241947 684.2144362648035 382.90917289418655
s 15.613054235001988 -18.328368015002336 33.94142225000432 -18.328368015002336
S 752.097280764812 319.0992990641784 752.097280764812 382.90917289418655
z" fill="none" stroke="none"></path>
<use xlink:href="#path-e0roj2idy4o-2" x="0" y="0" stroke="#7c276d">
  <animateMotion begin="-0.6578126187955268s" dur="3.8848899176830525s" keyPoints="1;0" keyTimes="0;1" repeatCount="indefinite" calcMode="linear">
    <mpath xlink:href="#path11"></mpath>
  </animateMotion>
</use><path id="path12" d="M 812.0622073773259 162.50721327266425
c 0 50.80009479607225 -12.429810428826189 14.591516590361179 -27.021327019187368 14.591516590361179
S 758.0195533389513 213.3073080687365 758.0195533389513 162.50721327266425
s 12.429810428826189 -14.591516590361179 27.021327019187368 -14.591516590361179
S 812.0622073773259 111.707118476592 812.0622073773259 162.50721327266425
z" fill="none" stroke="none"></path>
<use xlink:href="#path-e0roj2idy4o-3" x="0" y="0" stroke="#1c3870">
  <animateMotion begin="-0.5912621712196662s" dur="3.271012636681996s" keyPoints="1;0" keyTimes="0;1" repeatCount="indefinite" calcMode="linear">
    <mpath xlink:href="#path12"></mpath>
  </animateMotion>
</use><path id="path13" d="M 826.1278828793804 112.0135904865864
c 0 44.77993568005558 -10.956792772779556 12.862321950654263 -23.81911472343382 12.862321950654263
S 778.4896534325128 156.79352616664198 778.4896534325128 112.0135904865864
s 10.956792772779556 -12.862321950654263 23.81911472343382 -12.862321950654263
S 826.1278828793804 67.23365480653081 826.1278828793804 112.0135904865864
z" fill="none" stroke="none"></path>
<use xlink:href="#path-e0roj2idy4o-3" x="0" y="0" stroke="#951c8b">
  <animateMotion begin="-1.4107661503549154s" dur="3.42670165974592s" keyPoints="1;0" keyTimes="0;1" repeatCount="indefinite" calcMode="linear">
    <mpath xlink:href="#path13"></mpath>
  </animateMotion>
</use><path id="path14" d="M 924.9850680712972 599.4354946688993
c 0 52.882593648995645 -12.939358020498933 15.189681154498748 -28.12903917499768 15.189681154498748
S 868.7269897213017 652.318088317895 868.7269897213017 599.4354946688993
s 12.939358020498933 -15.189681154498748 28.12903917499768 -15.189681154498748
S 924.9850680712972 546.5529010199036 924.9850680712972 599.4354946688993
z" fill="none" stroke="none"></path>
<use xlink:href="#path-e0roj2idy4o-3" x="0" y="0" stroke="#1c3870">
  <animateMotion begin="-0.3050008106242098s" dur="4.526639101385678s" keyPoints="1;0" keyTimes="0;1" repeatCount="indefinite" calcMode="linear">
    <mpath xlink:href="#path14"></mpath>
  </animateMotion>
</use><path id="path15" d="M 985.7103641954378 329.20508766975877
c 0 38.53134903705711 -9.427883275024612 11.067515148941936 -20.49539842396655 11.067515148941936
S 944.7195673475047 367.7364367068159 944.7195673475047 329.20508766975877
s 9.427883275024612 -11.067515148941936 20.49539842396655 -11.067515148941936
S 985.7103641954378 290.67373863270166 985.7103641954378 329.20508766975877
z" fill="none" stroke="none"></path>
<use xlink:href="#path-e0roj2idy4o-1" x="0" y="0" stroke="#7c276d">
  <animateMotion begin="-0.7573451079834292s" dur="3.4751836390624047s" keyPoints="0;1" keyTimes="0;1" repeatCount="indefinite" calcMode="linear">
    <mpath xlink:href="#path15"></mpath>
  </animateMotion>
</use><path id="path16" d="M 1049.536464033792 164.8076236250685
c 0 20.599629996306362 -5.040334999096237 5.9169149989390615 -10.957249998035298 5.9169149989390615
S 1027.6219640377217 185.40725362137485 1027.6219640377217 164.8076236250685
s 5.040334999096237 -5.9169149989390615 10.957249998035298 -5.9169149989390615
S 1049.536464033792 144.20799362876213 1049.536464033792 164.8076236250685
z" fill="none" stroke="none"></path>
<use xlink:href="#path-e0roj2idy4o-3" x="0" y="0" stroke="#7c276d">
  <animateMotion begin="-0.2734479180227049s" dur="3.9175586336641812s" keyPoints="1;0" keyTimes="0;1" repeatCount="indefinite" calcMode="linear">
    <mpath xlink:href="#path16"></mpath>
  </animateMotion>
</use><path id="path17" d="M 1093.1348229010307 245.41844728579824
c 0 65.14501512315849 -15.939737742900478 18.711866046013608 -34.65160378891409 18.711866046013608
S 1023.8316153232024 310.56346240895675 1023.8316153232024 245.41844728579824
s 15.939737742900478 -18.711866046013608 34.65160378891409 -18.711866046013608
S 1093.1348229010307 180.27343216263975 1093.1348229010307 245.41844728579824
z" fill="none" stroke="none"></path>
<use xlink:href="#path-e0roj2idy4o-3" x="0" y="0" stroke="#7c276d">
  <animateMotion begin="-1.0383523079397874s" dur="3.2787817678606563s" keyPoints="0;1" keyTimes="0;1" repeatCount="indefinite" calcMode="linear">
    <mpath xlink:href="#path17"></mpath>
  </animateMotion>
</use><path id="path18" d="M 1180.7794363210385 326.54781621941595
c 0 57.66725358989557 -14.11007268688934 16.56399837156575 -30.67407105845509 16.56399837156575
S 1119.431294204128 384.2150698093115 1119.431294204128 326.54781621941595
s 14.11007268688934 -16.56399837156575 30.67407105845509 -16.56399837156575
S 1180.7794363210385 268.8805626295204 1180.7794363210385 326.54781621941595
z" fill="none" stroke="none"></path>
<use xlink:href="#path-e0roj2idy4o-2" x="0" y="0" stroke="#951c8b">
  <animateMotion begin="-1.0816839740609892s" dur="5.2170038039286455s" keyPoints="1;0" keyTimes="0;1" repeatCount="indefinite" calcMode="linear">
    <mpath xlink:href="#path18"></mpath>
  </animateMotion>
</use><path id="path19" d="M 1192.1594383383367 521.203800081211
c 0 26.99116483568389 -6.6042211831992494 7.752781388973032 -14.35700257217228 7.752781388973032
S 1163.4454331939924 548.194964916895 1163.4454331939924 521.203800081211
s 6.6042211831992494 -7.752781388973032 14.35700257217228 -7.752781388973032
S 1192.1594383383367 494.21263524552717 1192.1594383383367 521.203800081211
z" fill="none" stroke="none"></path>
<use xlink:href="#path-e0roj2idy4o-1" x="0" y="0" stroke="#1c3870">
  <animateMotion begin="-1.1415196845674258s" dur="4.334946409280896s" keyPoints="0;1" keyTimes="0;1" repeatCount="indefinite" calcMode="linear">
    <mpath xlink:href="#path19"></mpath>
  </animateMotion>
</use><path id="path20" d="M 1257.4985852929155 388.10785028184995
c 0 31.675218045006574 -7.7503193088845865 9.098200927821038 -16.848520236705625 9.098200927821038
S 1223.8015448195044 419.78306832685655 1223.8015448195044 388.10785028184995
s 7.7503193088845865 -9.098200927821038 16.848520236705625 -9.098200927821038
S 1257.4985852929155 356.43263223684335 1257.4985852929155 388.10785028184995
z" fill="none" stroke="none"></path>
<use xlink:href="#path-e0roj2idy4o-2" x="0" y="0" stroke="#7c276d">
  <animateMotion begin="-0.8781372501397008s" dur="5.3103884279898965s" keyPoints="0;1" keyTimes="0;1" repeatCount="indefinite" calcMode="linear">
    <mpath xlink:href="#path20"></mpath>
  </animateMotion>
</use><path id="path21" d="M 1326.6259522120042 308.80444598821674
c 0 42.84839459487009 -10.484181656191618 12.307517596398858 -22.791699252590476 12.307517596398858
S 1281.0425537068234 351.65284058308686 1281.0425537068234 308.80444598821674
s 10.484181656191618 -12.307517596398858 22.791699252590476 -12.307517596398858
S 1326.6259522120042 265.9560513933466 1326.6259522120042 308.80444598821674
z" fill="none" stroke="none"></path>
<use xlink:href="#path-e0roj2idy4o-3" x="0" y="0" stroke="#1c3870">
  <animateMotion begin="-0.32881237532782076s" dur="3.1497630705243562s" keyPoints="0;1" keyTimes="0;1" repeatCount="indefinite" calcMode="linear">
    <mpath xlink:href="#path21"></mpath>
  </animateMotion>
</use></g>
</svg>